HIERARCHY
ROOT Hips
{
	OFFSET 0.00000 0.00000 0.00000
	CHANNELS 6 Xposition Yposition Zposition Yrotation Zrotation Xrotation 
	JOINT Lumbar
	{
		OFFSET 0 0 0
		CHANNELS 3 Zrotation Xrotation Yrotation
		JOINT Neck
		{
			OFFSET 0.00 0.2701 0.00
			CHANNELS 3 Zrotation Xrotation Yrotation
			End Site
			{
				OFFSET 0.00 0.1379 0.00
			}
		}
		JOINT RightShoulder
		{
			OFFSET 0.0119 0.2289 0.1181
			CHANNELS 3 Zrotation Xrotation Yrotation
			JOINT RightElbow
			{
				OFFSET 0.00 -0.1475 0.00
				CHANNELS 2 Zrotation Yrotation
				JOINT RightWrist
				{
					OFFSET 0.00 -0.1605 0.00
					CHANNELS 2 Zrotation Xrotation
					End Site
					{
						OFFSET 0.0040 -0.1068 0.0006
					}
				}
			}
		}
		JOINT LeftShoulder
		{
			OFFSET 0.0119 0.2289 -0.1181
			CHANNELS 3 Zrotation Xrotation Yrotation
			JOINT LeftElbow
			{
				OFFSET 0.00 -0.1475 0.00
				CHANNELS 2 Zrotation Yrotation
				JOINT LeftWrist
				{
					OFFSET 0.00 -0.1605 0.00
					CHANNELS 2 Zrotation Xrotation
					End Site
					{
						OFFSET 0.0040 -0.1068 -0.0006
					}
				}
			}
		}
	}
	JOINT RightHip
	{
		OFFSET 0.0316 -0.0424 0.0458
		CHANNELS 3 Zrotation Xrotation Yrotation
		JOINT RightKnee
		{
			OFFSET 0.00 -0.2438 0.00
			CHANNELS 1 Zrotation
			JOINT RightAnkle
			{
				OFFSET 0.00 -0.2449 0.00
				CHANNELS 3 Zrotation Xrotation Yrotation
				End Site
				{
					OFFSET 0.1237 -0.0542 0.0051
				}
			}
		}
	}
	JOINT LeftHip
	{
		OFFSET 0.0316 -0.0424 -0.0458
		CHANNELS 3 Zrotation Xrotation Yrotation
		JOINT LeftKnee
		{
			OFFSET 0.00 -0.2438 0.00
			CHANNELS 1 Zrotation
			JOINT LeftAnkle
			{
				OFFSET 0.00 -0.2449 0.00
				CHANNELS 3 Zrotation Xrotation Yrotation
				End Site
				{
					OFFSET 0.1237 -0.0542 -0.0051
				}
			}
		}
	}
}
MOTION
Frames: 11
Frame Time: 0.02
-1.13468 -0.04265 0.21821 235.5645 -36.64366 -4.05625 28.21161 5.49718 4.40182 -9.55713 23.15426 -2.11987 14.64417 -19.27281 -23.15188 34.9774 84.04589 -0.8805 -4.00639 9.36599 22.48576 -53.37415 99.2328 -107.58861 8.86578 -5.07936 67.29298 -12.21602 0.00917 -54.84415 -5.9442 -2.3692 -3.33854 42.3885 21.87744 -4.63834 -39.15217 -5.87256 1.40383 2.89315
-1.12641 -0.04117 0.21764 234.97602 -36.51761 -4.23035 28.08661 5.20849 4.50358 -9.44393 22.62285 -2.11987 15.07247 -18.56333 -22.82356 34.47301 84.02806 -0.51832 -3.72925 8.37034 21.44431 -52.21289 98.87012 -106.01557 9.74696 -4.25341 66.74573 -11.83417 -1.06931 -54.83967 -5.9952 -2.3558 -3.33717 43.33144 21.22342 -4.19425 -40.41131 -5.83578 1.45494 2.91491
-1.11896 -0.03864 0.21657 234.35889 -36.49529 -4.3758 28.02139 4.95345 4.57729 -9.27049 21.98612 -2.11987 15.62451 -17.80076 -22.44048 33.877 84.00767 -0.09207 -3.43971 7.1108 20.22605 -50.67399 98.36382 -103.18575 10.68035 -3.26846 65.87347 -11.198 -2.68482 -54.63831 -6.06139 -2.34325 -3.3386 43.60997 20.6127 -3.5174 -40.18551 -5.87432 1.44552 2.91105
-1.11118 -0.03657 0.21573 233.76382 -36.43559 -4.53218 27.93751 4.68924 4.6614 -9.11271 21.40417 -2.11987 16.11626 -17.07748 -22.07647 33.33041 83.98918 0.29925 -3.15989 6.00616 19.11124 -49.35234 97.92486 -101.04006 11.5816 -2.3819 65.12481 -10.65565 -4.06312 -54.51163 -6.1173 -2.33047 -3.33852 44.20194 19.99281 -2.91695 -40.62765 -5.88388 1.44492 2.91026
-1.10321 -0.03458 0.21489 233.12839 -36.3325 -4.69713 27.81395 4.39728 4.75361 -9.00377 20.78981 -2.11987 16.62695 -16.28664 -21.73176 32.74825 83.96809 0.71803 -2.8625 4.74608 17.89279 -47.82639 97.47099 -98.44257 12.53322 -1.37214 64.47274 -10.20074 -5.42012 -54.4442 -6.18701 -2.31641 -3.33908 44.76429 19.3266 -2.39334 -41.13489 -5.88308 1.4675 2.91975
-1.09582 -0.03218 0.21392 232.57136 -36.34514 -4.83605 27.78887 4.17161 4.82447 -8.77891 20.21934 -2.11987 17.12807 -15.62681 -21.33751 32.21951 83.95137 1.09166 -2.59893 3.74785 16.85166 -46.63919 97.01872 -96.47312 13.38535 -0.5851 63.54415 -9.50662 -6.94205 -54.20518 -6.232 -2.30566 -3.33921 45.22439 18.76594 -1.67506 -41.14378 -5.91707 1.44826 2.91143
-1.08978 -0.02874 0.21271 232.23354 -36.65305 -4.92835 28.01812 4.12431 4.82553 -8.2506 19.79471 -2.11987 17.55837 -15.32333 -20.7987 31.86018 83.9503 1.3503 -2.43185 3.5654 16.33036 -46.49945 96.5772 -96.60593 13.96534 -0.46551 61.93287 -8.19498 -8.83775 -53.57196 -6.20206 -2.30124 -3.33605 45.55063 18.51054 -0.44579 -40.09451 -6.03049 1.33559 2.86378
-1.08428 -0.02495 0.21138 231.97623 -37.07359 -4.99238 28.34498 4.14256 4.80974 -7.60785 19.41903 -2.11987 17.97727 -15.1574 -20.21582 31.55824 83.95315 1.55661 -2.29959 3.65208 15.99689 -46.71193 96.14767 -97.40025 14.43841 -0.57515 60.05515 -6.65599 -10.87078 -52.76709 -6.14725 -2.30058 -3.33261 45.79676 18.35593 0.95866 -38.5988 -6.17426 1.18977 2.80224
-1.07855 -0.02139 0.2101 231.68571 -37.4427 -5.05756 28.63025 4.12836 4.81284 -7.01586 19.02146 -2.11987 18.40979 -14.94064 -19.66815 31.23078 83.9522 1.76994 -2.15096 3.59815 15.58657 -46.75213 95.73263 -97.84903 14.94876 -0.5728 58.29912 -5.23323 -12.80845 -52.0221 -6.10586 -2.30006 -3.3303 46.08572 18.1398 2.25756 -37.33009 -6.30141 1.06226 2.74838
-1.07279 -0.01748 0.2088 231.38174 -37.81801 -5.17076 28.90786 4.12513 4.7661 -6.42541 18.61657 -2.11987 18.80979 -14.67201 -19.0566 30.89776 83.9596 2.05567 -2.00286 3.61084 15.13356 -46.83033 95.23022 -98.44324 15.50989 -0.59712 56.52861 -3.74436 -14.90579 -51.34991 -6.05629 -2.2921 -3.32401 46.32417 17.99145 3.67786 -35.904 -6.44365 0.91729 2.68706
-1.06721 -0.01424 0.20754 231.12296 -38.20381 -5.178 29.22129 4.11596 4.82132 -5.8074 18.24258 -2.11987 19.2748 -14.54561 -18.56561 30.59111 83.95067 2.17811 -1.86375 3.55374 14.81702 -46.91817 94.91218 -98.90878 15.9379 -0.62312 54.72985 -2.34586 -16.69397 -50.48383 -6.01738 -2.30008 -3.32568 46.65809 17.72533 4.88002 -34.72455 -6.56026 0.80261 2.63878
